<?xml version="1.0" encoding="utf-8"?>
<!-- Generator: Adobe Illustrator 24.0.1, SVG Export Plug-In . SVG Version: 6.00 Build 0)  -->
<svg version="1.1" id="Layer_1" xmlns="http://www.w3.org/2000/svg" xmlns:xlink="http://www.w3.org/1999/xlink" x="0px" y="0px"
	 viewBox="0 0 160 150" style="enable-background:new 0 0 160 150;" xml:space="preserve">
<style type="text/css">
	.st0{fill:#BA0C2F;}
	.st1{fill:none;}
	.st2{opacity:0.1;}
	.st3{clip-path:url(#SVGID_12_);fill:#BA0C2F;}
	.st4{clip-path:url(#SVGID_12_);fill:none;}
	.st5{clip-path:url(#SVGID_14_);}
	.st6{clip-path:url(#SVGID_16_);}
	.st7{fill-rule:evenodd;clip-rule:evenodd;fill:#BA0C2F;}
	.st8{fill:none;stroke:#BA0C2F;stroke-width:2.2;stroke-miterlimit:10;}
	.st9{fill:#FFFFFF;}
	.st10{fill:#C01F3F;}
	.st11{clip-path:url(#SVGID_18_);}
	.st12{clip-path:url(#SVGID_20_);}
	.st13{clip-path:url(#SVGID_22_);}
	.st14{clip-path:url(#SVGID_24_);}
	.st15{clip-path:url(#SVGID_32_);}
	.st16{clip-path:url(#SVGID_34_);}
	.st17{clip-path:url(#SVGID_36_);}
	.st18{clip-path:url(#SVGID_38_);fill:#BA0C2F;}
	.st19{clip-path:url(#SVGID_40_);}
	.st20{fill:#C01634;}
	.st21{clip-path:url(#SVGID_42_);fill:#BA0C2F;}
	.st22{clip-path:url(#SVGID_44_);}
	.st23{clip-path:url(#SVGID_46_);}
	.st24{fill:none;stroke:#BA0C2F;stroke-width:2.25;}
	.st25{fill:#BF1C3F;}
	.st26{fill:#C01C41;}
	.st27{fill:#BF1F40;}
	.st28{fill:none;stroke:#C01D40;stroke-width:2.2;stroke-miterlimit:10;}
</style>
<g>
	<rect class="st1" width="160" height="150"/>
	<rect class="st1" width="160" height="150"/>
	<g>
		<g>
			<polygon class="st0" points="84.2,4.7 84.2,30.1 88.9,30.1 88.9,9.3 142,9.3 142,58.8 119.8,58.8 111.9,68.9 102.6,58.8 
				98.3,58.8 98.3,63.5 100.6,63.5 112.1,76 122.1,63.5 146.6,63.5 146.6,4.7 			"/>
			<path class="st0" d="M112.1,77.1l-11.8-13h-2.7v-6h5.4l8.9,9.7l7.7-9.7h21.8V10H89.6v20.8h-6V4h63.8v60.2h-24.9L112.1,77.1z
				 M99,62.8h2L112.1,75l9.7-12.2h24.2V5.4h-61v24h3.2V8.6h54.5v50.9h-22.5L111.9,70l-9.6-10.4H99V62.8z"/>
		</g>
		<g>
			<defs>
				<rect id="SVGID_39_" x="12.9" y="4.7" width="133.7" height="141"/>
			</defs>
			<clipPath id="SVGID_2_">
				<use xlink:href="#SVGID_39_"  style="overflow:visible;"/>
			</clipPath>
			<g style="clip-path:url(#SVGID_2_);">
				<path class="st0" d="M61.4,98.3l-6.3-8.9c2.1,0.4,4.2,0.6,6.4,0.6c2.1,0,4.1-0.2,6-0.6L61.4,98.3z M61.5,30.7
					c14.9,0,27.1,12.2,27.1,27.1S76.4,85,61.5,85S34.4,72.8,34.4,57.9S46.5,30.7,61.5,30.7 M82.5,141.6c-0.3,0-0.7,0-1-0.1
					c-1.7-0.5-2.7-2.4-2.2-4.1c0.4-1.4,1.7-2.3,3.1-2.3c0.3,0,0.7,0,1,0.1c1.7,0.5,2.7,2.4,2.2,4.1
					C85.2,140.6,83.9,141.6,82.5,141.6 M66.2,137.1c-1.7-0.5-2.7-2.4-2.1-4.1c0.4-1.4,1.7-2.3,3.1-2.3c0.3,0,0.6,0,1,0.1
					c1.7,0.5,2.7,2.4,2.1,4.1c-0.4,1.4-1.7,2.3-3.1,2.3C66.8,137.2,66.5,137.2,66.2,137.1 M50.9,135.4c-0.7,1.3-1.9,2.3-3.4,2.7
					c-1.5,0.4-3,0.3-4.3-0.5c-1.3-0.7-2.3-1.9-2.7-3.4c-0.9-3,0.8-6.2,3.9-7.1c0.5-0.2,1.1-0.2,1.6-0.2c0.9,0,1.9,0.2,2.7,0.7
					c1.3,0.7,2.3,1.9,2.7,3.4C51.8,132.5,51.6,134.1,50.9,135.4 M91.9,85.6c-0.2-1.2-0.6-2.2-1-2.9c-1.3-2.3-3.5-3.5-4.9-4.1
					c4.7-5.6,7.6-12.8,7.6-20.7c0-17.7-14.4-32.1-32.1-32.1c-17.7,0-32.1,14.4-32.1,32.1c0,8.1,3,15.4,7.9,21.1
					c-2.8,1-4.3,2.7-5.1,4.1c-0.5,0.8-0.7,1.6-0.9,2.5c-11.4,9.1-18.4,23-18.4,38v19.7h5v-19.7c0-12.2,5.1-23.5,13.6-31.6
					c0,0.1,0.1,0.2,0.1,0.2l9.1,32.3c-3.7,2.3-5.6,6.8-4.3,11.2c1.3,4.3,5.2,7.1,9.5,7.1c0.9,0,1.9-0.1,2.8-0.4
					c5.2-1.5,8.2-7,6.7-12.3c-0.7-2.5-2.4-4.6-4.7-5.9c-1.5-0.8-3.2-1.2-4.9-1.2l-9.1-32.4c-0.2-0.4-0.4-1.4-0.4-2.4
					c2.1-1.5,4.4-2.8,6.8-3.9c1.7,1.2,3.6,2.3,5.5,3.1l12.9,18.4L74,87.5c2.1-0.9,4.1-2,6-3.4c2.4,1.1,4.6,2.4,6.7,3.9
					c0,0.3-0.1,0.5-0.2,0.8c-1.4,4.8-2.4,8.3-2.9,10.1c-1.8,0.6-4.7,1.8-8.1,4.7c-7.4,6.1-9.5,16-10,23.1c-2.5,0.6-4.6,2.4-5.4,5
					c-0.6,1.9-0.4,3.9,0.5,5.7c0.9,1.8,2.5,3.1,4.4,3.6c0.7,0.2,1.5,0.3,2.2,0.3c3.3,0,6.1-2.1,7.1-5.2c1.1-3.4-0.5-7.1-3.6-8.8
					c0.4-6.2,2.1-14.9,8.1-19.8c2.8-2.3,5-3.2,6.2-3.6c0.8,1.1,2,3.3,3.2,6.7c2.5,7.1-0.9,14.9-4.1,20.3c-0.5-0.1-1.1-0.2-1.7-0.2
					c-3.3,0-6.2,2.1-7.1,5.3c-1.2,3.9,1,8.1,4.9,9.4c0.7,0.2,1.5,0.3,2.2,0.3c3.3,0,6.2-2.1,7.1-5.3c0.6-1.9,0.4-3.9-0.5-5.7
					c-0.2-0.3-0.4-0.6-0.6-0.9c3.8-6.2,7.9-15.8,4.7-24.9c-1.7-4.9-3.6-7.6-4.5-8.8c0.4-1.7,1.3-4.6,2.4-8.6
					c8.7,8.1,13.9,19.5,13.9,31.9v19.7h5v-19.7C110,108.5,103.2,94.7,91.9,85.6"/>
				<path class="st0" d="M82.5,146.1c-0.8,0-1.6-0.1-2.3-0.4c-4.1-1.3-6.4-5.7-5.1-9.8c1-3.3,4-5.5,7.5-5.5c0.5,0,1,0.1,1.5,0.2
					c3.2-5.3,6.3-12.9,3.9-19.7c-1.1-3.1-2.2-5.2-3-6.4c-1.3,0.5-3.4,1.5-5.8,3.5c-5.8,4.7-7.5,13.1-8,19.3c3.1,1.8,4.6,5.6,3.5,9.1
					c-1,3.3-4,5.5-7.4,5.5c-0.8,0-1.6-0.1-2.3-0.4c-2-0.6-3.6-2-4.6-3.8c-1-1.8-1.2-4-0.5-5.9c0.8-2.6,2.8-4.5,5.4-5.2
					c0.6-7.3,2.8-17.1,10.1-23.1c3.3-2.7,6.2-4,8-4.7c0.8-3.1,1.8-6.5,2.8-10c0.1-0.2,0.1-0.4,0.1-0.6c-1.9-1.3-4-2.6-6.3-3.6
					c-1.9,1.3-3.8,2.4-5.8,3.3l-12.8,18.4l-0.3-0.4L48.3,87.5c-1.8-0.8-3.6-1.8-5.3-3c-2.3,1.1-4.4,2.3-6.4,3.7
					c0,0.9,0.2,1.8,0.4,2.1l9.1,32.2c1.7,0,3.3,0.4,4.8,1.2c2.4,1.3,4.1,3.5,4.9,6.1c1.6,5.4-1.5,11.1-6.9,12.7
					c-1,0.3-1.9,0.4-2.9,0.4c-4.5,0-8.5-3-9.8-7.3c-1.3-4.3,0.5-9,4.2-11.4l-8.9-31.6c-8.3,8.1-13.1,19.4-13.1,31v20h-5.7v-20
					c0-14.9,6.7-28.9,18.4-38.2c0.2-0.9,0.5-1.7,0.9-2.4c0.7-1.3,2.1-3,4.8-4.1c-5-5.9-7.7-13.3-7.7-20.9
					c0-17.9,14.6-32.5,32.5-32.5C79.4,25.4,94,39.9,94,57.9c0,7.5-2.6,14.8-7.4,20.6c1.5,0.7,3.4,1.9,4.6,4.1c0.5,0.9,0.9,1.9,1,2.9
					c11.6,9.3,18.2,23.2,18.2,38v20h-5.7v-20c0-11.8-4.9-23.1-13.4-31.2c-1.2,4-1.9,6.7-2.2,7.9c1,1.3,2.8,4.1,4.4,8.8
					c3.2,9.1-0.7,18.6-4.6,25c0.2,0.2,0.3,0.5,0.5,0.7c1,1.9,1.2,4,0.5,6C88.9,143.9,85.9,146.1,82.5,146.1z M82.5,131.1
					c-3.1,0-5.9,2-6.8,5c-1.2,3.8,0.9,7.8,4.7,8.9c0.7,0.2,1.4,0.3,2.1,0.3c3.1,0,5.9-2,6.8-5c0.6-1.8,0.4-3.7-0.5-5.4
					c-0.1-0.2-0.3-0.5-0.5-0.7l-0.2-0.3l0.1-0.2c3.8-6.3,7.8-15.7,4.6-24.6c-1.7-4.8-3.5-7.5-4.4-8.7l-0.1-0.1l0-0.2
					c0.3-1.1,1.1-4.1,2.4-8.6l0.2-0.5l0.4,0.4c8.9,8.3,14,20,14,32.1v19.3h4.3v-19.3c0-14.7-6.6-28.4-18-37.6l-0.1-0.1l0-0.1
					c-0.2-1-0.5-1.9-1-2.8c-1.3-2.2-3.3-3.4-4.7-4l-0.4-0.2l0.3-0.4c4.9-5.7,7.5-13,7.5-20.5c0-17.5-14.3-31.8-31.8-31.8
					c-17.5,0-31.8,14.3-31.8,31.8c0,7.6,2.8,15,7.9,20.8l0.3,0.4l-0.5,0.2c-2.8,1-4.2,2.7-4.9,3.9c-0.4,0.7-0.7,1.4-0.9,2.4l0,0.1
					l-0.1,0.1c-11.6,9.2-18.2,23-18.2,37.7v19.3h4.3v-19.3c0-12,5-23.6,13.7-31.9l0.4-0.4l0.2,0.5c0,0.1,0.1,0.2,0.1,0.2l9.2,32.5
					l-0.2,0.1c-3.7,2.3-5.4,6.7-4.2,10.8c1.2,4,4.9,6.8,9.1,6.8c0.9,0,1.8-0.1,2.7-0.4c5-1.5,7.9-6.8,6.4-11.8
					c-0.7-2.4-2.3-4.5-4.6-5.7c-1.4-0.8-3-1.1-4.7-1.1l-0.3,0l-9.2-32.6c-0.2-0.5-0.4-1.5-0.4-2.5l0-0.2l0.1-0.1
					c2.1-1.5,4.4-2.8,6.8-4l0.2-0.1l0.2,0.1c1.7,1.2,3.6,2.3,5.4,3.1l0.1,0l0.1,0.1l12.6,18l12.3-17.8l0.1,0c2-0.9,4-2,5.9-3.3
					l0.2-0.1l0.2,0.1c2.4,1.1,4.7,2.5,6.8,3.9l0.2,0.1l0,0.2c0,0.3-0.1,0.6-0.2,0.9c-1.1,3.6-2,7-2.9,10.1l-0.1,0.2l-0.2,0.1
					c-1.8,0.6-4.6,1.8-8,4.6c-7.2,5.9-9.4,15.7-9.9,22.9l0,0.3l-0.3,0.1c-2.5,0.6-4.4,2.4-5.2,4.8c-0.6,1.8-0.4,3.7,0.5,5.4
					c0.9,1.7,2.4,2.9,4.2,3.5c0.7,0.2,1.4,0.3,2.1,0.3c3.1,0,5.8-2,6.8-5c1-3.2-0.4-6.7-3.4-8.3l-0.2-0.1l0-0.2
					c0.4-6.4,2.2-15.1,8.3-20c2.7-2.2,4.9-3.2,6.3-3.7l0.3-0.1l0.2,0.2c0.8,1.2,2.1,3.4,3.3,6.8c2.5,7.2-0.9,15.1-4.1,20.5l-0.1,0.2
					l-0.2-0.1C83.5,131.2,83,131.1,82.5,131.1z M82.5,141.9c-0.4,0-0.7-0.1-1.1-0.2c-1.9-0.6-3-2.6-2.4-4.6c0.5-1.5,1.9-2.6,3.5-2.6
					c0.4,0,0.7,0.1,1.1,0.2c1.9,0.6,3,2.7,2.4,4.6C85.5,140.9,84.1,141.9,82.5,141.9z M82.5,135.3c-1.3,0-2.4,0.8-2.8,2.1
					c-0.5,1.6,0.4,3.2,1.9,3.7c0.3,0.1,0.6,0.1,0.9,0.1c1.3,0,2.4-0.8,2.8-2.1c0.5-1.6-0.4-3.2-1.9-3.7
					C83.1,135.3,82.8,135.3,82.5,135.3z M45.9,138.7c-1,0-2-0.3-2.9-0.7c-1.4-0.8-2.4-2-2.9-3.6c-0.9-3.2,0.9-6.6,4.1-7.5
					c1.6-0.5,3.2-0.3,4.6,0.5c1.4,0.8,2.4,2,2.9,3.6c0.5,1.6,0.3,3.2-0.5,4.6l0,0c-0.8,1.4-2,2.4-3.6,2.9
					C47,138.6,46.5,138.7,45.9,138.7z M45.9,127.3c-0.5,0-1,0.1-1.5,0.2c-2.8,0.8-4.4,3.8-3.6,6.6c0.4,1.4,1.3,2.5,2.6,3.2
					c1.3,0.7,2.7,0.8,4.1,0.4c1.4-0.4,2.5-1.3,3.2-2.6l0,0c0.7-1.3,0.8-2.7,0.4-4.1c-0.4-1.4-1.3-2.5-2.6-3.2
					C47.7,127.6,46.8,127.3,45.9,127.3z M67.1,137.6c-0.4,0-0.7-0.1-1.1-0.2c-0.9-0.3-1.7-0.9-2.1-1.8c-0.4-0.9-0.5-1.8-0.2-2.7
					c0.6-1.9,2.5-3,4.5-2.4c1.9,0.6,3,2.6,2.4,4.5C70.1,136.6,68.7,137.6,67.1,137.6z M67.1,131.1c-1.3,0-2.4,0.8-2.8,2
					c-0.2,0.7-0.2,1.5,0.2,2.2c0.4,0.7,1,1.2,1.7,1.4h0c0.3,0.1,0.6,0.1,0.9,0.1c1.3,0,2.4-0.8,2.8-2c0.5-1.5-0.4-3.2-1.9-3.6
					C67.7,131.1,67.4,131.1,67.1,131.1z M61.4,98.9l-7.1-10.1l0.9,0.2c4,0.8,8.1,0.9,12.3,0l0.8-0.2L61.4,98.9z M55.9,89.8l5.5,7.8
					l5.4-7.8C63.1,90.5,59.5,90.5,55.9,89.8z M61.5,85.3C46.3,85.3,34,73,34,57.9s12.3-27.5,27.5-27.5c15.1,0,27.5,12.3,27.5,27.5
					S76.6,85.3,61.5,85.3z M61.5,31.1c-14.8,0-26.8,12-26.8,26.8s12,26.8,26.8,26.8s26.8-12,26.8-26.8S76.2,31.1,61.5,31.1z"/>
			</g>
			<g style="clip-path:url(#SVGID_2_);">
				<path class="st10" d="M45.1,129.9c-1.5,0.4-2.4,2-1.9,3.5c0.4,1.5,2,2.4,3.5,1.9c1.5-0.4,2.4-2,1.9-3.5
					C48.2,130.4,46.6,129.5,45.1,129.9"/>
				<path class="st10" d="M45.9,135.9c-0.5,0-1.1-0.1-1.5-0.4c-0.8-0.4-1.3-1.1-1.5-1.9c-0.5-1.7,0.5-3.5,2.2-4l0,0
					c0.8-0.2,1.7-0.2,2.4,0.3c0.8,0.4,1.3,1.1,1.5,1.9c0.2,0.8,0.2,1.7-0.3,2.4c-0.4,0.8-1.1,1.3-1.9,1.5
					C46.5,135.8,46.2,135.9,45.9,135.9z M45.2,130.3c-1.3,0.4-2.1,1.8-1.7,3.1c0.2,0.6,0.6,1.2,1.2,1.5c0.6,0.3,1.3,0.4,1.9,0.2
					c0.6-0.2,1.2-0.6,1.5-1.2c0.3-0.6,0.4-1.3,0.2-1.9c-0.2-0.6-0.6-1.2-1.2-1.5C46.5,130.1,45.8,130.1,45.2,130.3L45.2,130.3z"/>
			</g>
		</g>
	</g>
</g>
</svg>
