<?xml version="1.0" encoding="utf-8"?>
<!-- Generator: Adobe Illustrator 24.0.1, SVG Export Plug-In . SVG Version: 6.00 Build 0)  -->
<svg version="1.1" id="Layer_1" xmlns="http://www.w3.org/2000/svg" xmlns:xlink="http://www.w3.org/1999/xlink" x="0px" y="0px"
	 viewBox="0 0 160 150" style="enable-background:new 0 0 160 150;" xml:space="preserve">
<style type="text/css">
	.st0{fill:#BA0C2F;}
	.st1{fill:none;}
	.st2{opacity:0.1;}
	.st3{clip-path:url(#SVGID_12_);fill:#BA0C2F;}
	.st4{clip-path:url(#SVGID_12_);fill:none;}
	.st5{clip-path:url(#SVGID_14_);}
	.st6{clip-path:url(#SVGID_16_);}
	.st7{fill-rule:evenodd;clip-rule:evenodd;fill:#BA0C2F;}
	.st8{fill:none;stroke:#BA0C2F;stroke-width:2.2;stroke-miterlimit:10;}
	.st9{fill:#FFFFFF;}
	.st10{fill:#C01F3F;}
	.st11{clip-path:url(#SVGID_18_);}
	.st12{clip-path:url(#SVGID_20_);}
	.st13{clip-path:url(#SVGID_22_);}
	.st14{clip-path:url(#SVGID_24_);}
	.st15{clip-path:url(#SVGID_32_);}
	.st16{clip-path:url(#SVGID_34_);}
	.st17{clip-path:url(#SVGID_36_);}
	.st18{clip-path:url(#SVGID_38_);fill:#BA0C2F;}
	.st19{clip-path:url(#SVGID_40_);}
	.st20{fill:#C01634;}
	.st21{clip-path:url(#SVGID_42_);fill:#BA0C2F;}
	.st22{clip-path:url(#SVGID_44_);}
	.st23{clip-path:url(#SVGID_46_);}
	.st24{fill:none;stroke:#BA0C2F;stroke-width:2.25;}
	.st25{fill:#BF1C3F;}
	.st26{fill:#C01C41;}
	.st27{fill:#BF1F40;}
	.st28{fill:none;stroke:#C01D40;stroke-width:2.2;stroke-miterlimit:10;}
</style>
<g>
	<rect class="st1" width="160" height="150"/>
	<g>
		<path class="st7" d="M122.5,5.8H37.2c-6.4,0-11.6,5.2-11.6,11.5v115.3c0,6.3,5.2,11.5,11.6,11.5h85.6c6.4,0,11.6-5.2,11.6-11.5
			V17.3C134.1,11,128.9,5.8,122.5,5.8L122.5,5.8z M96.4,138.4H63.3c0-3.2,0.3-8.7,0.3-18.2h33.1C96.7,128.3,96.4,135,96.4,138.4z
			 M63.3,114.5V94.9h33.1v19.6H63.3z M96.4,69.2v19.6H63.3V69.2H96.4z M102.2,69.2h26.1v19.6h-26.1L102.2,69.2L102.2,69.2z
			 M57.5,69.2v19.6H31.4V69.2H57.5L57.5,69.2z M31.4,94.9h26.1v19.6H31.4V94.9z M102.2,94.9h26.1v19.6h-26.1
			C102.5,109,102.5,102.7,102.2,94.9L102.2,94.9z M37.2,11.6h85.6c3.2,0,5.8,2.6,5.8,5.8v46.1H31.1V17.3
			C31.4,14.2,34,11.6,37.2,11.6L37.2,11.6z M31.4,132.7v-12.4h26.1v18.2H37.2C34,138.4,31.4,135.9,31.4,132.7z M122.5,138.4h-20.3
			c0-3.2,0.3-8.7,0.3-18.2h26.1v12.4C128.3,135.8,125.7,138.4,122.5,138.4L122.5,138.4z"/>
	</g>
</g>
</svg>
