<?xml version="1.0" encoding="utf-8"?>
<!-- Generator: Adobe Illustrator 24.0.1, SVG Export Plug-In . SVG Version: 6.00 Build 0)  -->
<svg version="1.1" id="Layer_1" xmlns="http://www.w3.org/2000/svg" xmlns:xlink="http://www.w3.org/1999/xlink" x="0px" y="0px"
	 viewBox="0 0 160 150" style="enable-background:new 0 0 160 150;" xml:space="preserve">
<style type="text/css">
	.st0{fill:#BA0C2F;}
	.st1{fill:none;}
	.st2{opacity:0.1;}
	.st3{clip-path:url(#SVGID_12_);fill:#BA0C2F;}
	.st4{clip-path:url(#SVGID_12_);fill:none;}
	.st5{clip-path:url(#SVGID_14_);}
	.st6{clip-path:url(#SVGID_16_);}
	.st7{fill-rule:evenodd;clip-rule:evenodd;fill:#BA0C2F;}
	.st8{fill:none;stroke:#BA0C2F;stroke-width:2.2;stroke-miterlimit:10;}
	.st9{fill:#FFFFFF;}
	.st10{fill:#C01F3F;}
	.st11{clip-path:url(#SVGID_18_);}
	.st12{clip-path:url(#SVGID_20_);}
	.st13{clip-path:url(#SVGID_22_);}
	.st14{clip-path:url(#SVGID_24_);}
	.st15{clip-path:url(#SVGID_32_);}
	.st16{clip-path:url(#SVGID_34_);}
	.st17{clip-path:url(#SVGID_36_);}
	.st18{clip-path:url(#SVGID_38_);fill:#BA0C2F;}
	.st19{clip-path:url(#SVGID_40_);}
	.st20{fill:#C01634;}
	.st21{clip-path:url(#SVGID_42_);fill:#BA0C2F;}
	.st22{clip-path:url(#SVGID_44_);}
	.st23{clip-path:url(#SVGID_46_);}
	.st24{fill:none;stroke:#BA0C2F;stroke-width:2.25;}
	.st25{fill:#BF1C3F;}
	.st26{fill:#C01C41;}
	.st27{fill:#BF1F40;}
	.st28{fill:none;stroke:#C01D40;stroke-width:2.2;stroke-miterlimit:10;}
</style>
<g>
	<rect class="st1" width="160" height="150"/>
	<g>
		<g>
			<polygon class="st0" points="104.8,92.9 87.1,77.9 83.1,77.9 83.1,71.1 89.7,71.1 104.4,83.6 117.2,71.1 151.7,71.1 151.7,12.1 
				68.3,12.1 68.3,34.4 61.4,34.4 61.4,5.3 158.5,5.3 158.5,77.9 120,77.9 			"/>
		</g>
		<g>
			<path class="st0" d="M43.8,99.3c-15.7,0-28.5-12.8-28.5-28.5c0-15.7,12.8-28.5,28.5-28.5c15.7,0,28.5,12.8,28.5,28.5
				C72.3,86.5,59.5,99.3,43.8,99.3z M43.8,49.2c-11.9,0-21.6,9.7-21.6,21.6c0,11.9,9.7,21.6,21.6,21.6c11.9,0,21.6-9.7,21.6-21.6
				C65.4,58.9,55.7,49.2,43.8,49.2z"/>
		</g>
		<g>
			<path class="st0" d="M86.2,144.7h-6.9v-17.2c0-14.9-8.5-28.2-21.7-34l2.7-6.3c15.7,6.9,25.8,22.7,25.8,40.3V144.7z"/>
		</g>
		<g>
			<path class="st0" d="M8.3,144.7H1.5v-17.2c0-17.4,10-33.2,25.5-40.1l2.8,6.3c-13.1,5.8-21.5,19.1-21.5,33.9V144.7z"/>
		</g>
		<g>
			<path class="st0" d="M126,58.9c-7.3,0.8-13.9-4.5-14.7-11.8c-0.8-7.3,4.5-13.9,11.8-14.7s13.9,4.5,14.7,11.8
				C138.7,51.5,133.4,58.1,126,58.9z M123.8,38.7c-3.9,0.4-6.6,3.9-6.2,7.7c0.4,3.9,3.9,6.6,7.8,6.2c3.9-0.4,6.6-3.9,6.2-7.8
				C131.1,41.1,127.7,38.3,123.8,38.7z"/>
		</g>
		<g>
			<polygon class="st0" points="116.5,37.4 114.6,32.8 119,30.2 122,34.2 			"/>
		</g>
		<g>
			<polygon class="st0" points="124.7,33.4 126.5,29.4 131.6,30.7 130.8,35.4 125,33.5 			"/>
		</g>
		<g>
			<polygon class="st0" points="133.3,37 137.5,35.6 140,40.1 136.6,42.7 			"/>
		</g>
		<g>
			<polygon class="st0" points="137.1,45.8 140.8,47.6 139.4,52.7 135.3,52.2 			"/>
		</g>
		<g>
			<polygon class="st0" points="133.2,54.5 134.6,58.5 130,61.1 127.5,57.7 			"/>
		</g>
		<g>
			<polygon class="st0" points="124.4,58.2 122.8,61.9 117.6,60.5 118.2,56.1 			"/>
		</g>
		<g>
			<polygon class="st0" points="112.5,48.7 109.1,51.1 111.6,55.8 115.9,54.2 			"/>
		</g>
		<g>
			<polygon class="st0" points="114.3,39.1 109.8,38.7 108.3,43.7 112.1,45.4 			"/>
		</g>
		<g>
			<path class="st0" d="M95.2,42.5c-5.5,0.6-10.4-3.4-11-8.8c-0.6-5.5,3.4-10.4,8.8-11c5.5-0.6,10.4,3.4,11,8.8
				S100.7,41.9,95.2,42.5z M93.5,27.5c-2.8,0.3-4.8,2.8-4.5,5.6s2.8,4.8,5.6,4.5c2.8-0.3,4.8-2.8,4.5-5.6S96.3,27.2,93.5,27.5z"/>
		</g>
		<g>
			<polygon class="st0" points="88.1,26.5 86.7,23.1 89.9,21.1 92.2,24.1 			"/>
		</g>
		<g>
			<polygon class="st0" points="94.2,23.5 95.5,20.5 99.3,21.5 98.7,25 94.4,23.6 			"/>
		</g>
		<g>
			<polygon class="st0" points="100.5,26.2 103.6,25.2 105.5,28.5 103,30.4 			"/>
		</g>
		<g>
			<polygon class="st0" points="103.3,32.7 106.1,34 105,37.8 102,37.4 			"/>
		</g>
		<g>
			<polygon class="st0" points="100.5,39.1 101.5,42.1 98.1,44 96.2,41.5 			"/>
		</g>
		<g>
			<polygon class="st0" points="94,41.9 92.8,44.6 88.9,43.6 89.4,40.3 			"/>
		</g>
		<g>
			<polygon class="st0" points="85.1,34.8 82.6,36.6 84.5,40.1 87.7,38.9 			"/>
		</g>
		<g>
			<polygon class="st0" points="86.4,27.7 83.2,27.4 82,31.2 84.9,32.4 			"/>
		</g>
	</g>
</g>
</svg>
