<?xml version="1.0" encoding="utf-8"?>
<!-- Generator: Adobe Illustrator 24.0.1, SVG Export Plug-In . SVG Version: 6.00 Build 0)  -->
<svg version="1.1" id="Layer_1" xmlns="http://www.w3.org/2000/svg" xmlns:xlink="http://www.w3.org/1999/xlink" x="0px" y="0px"
	 viewBox="0 0 160 150" style="enable-background:new 0 0 160 150;" xml:space="preserve">
<style type="text/css">
	.st0{fill:#BA0C2F;}
	.st1{fill:none;}
	.st2{opacity:0.1;}
	.st3{clip-path:url(#SVGID_12_);fill:#BA0C2F;}
	.st4{clip-path:url(#SVGID_12_);fill:none;}
	.st5{clip-path:url(#SVGID_14_);}
	.st6{clip-path:url(#SVGID_16_);}
	.st7{fill-rule:evenodd;clip-rule:evenodd;fill:#BA0C2F;}
	.st8{fill:none;stroke:#BA0C2F;stroke-width:2.2;stroke-miterlimit:10;}
	.st9{fill:#FFFFFF;}
	.st10{fill:#C01F3F;}
	.st11{clip-path:url(#SVGID_18_);}
	.st12{clip-path:url(#SVGID_20_);}
	.st13{clip-path:url(#SVGID_22_);}
	.st14{clip-path:url(#SVGID_24_);}
	.st15{clip-path:url(#SVGID_32_);}
	.st16{clip-path:url(#SVGID_34_);}
	.st17{clip-path:url(#SVGID_36_);}
	.st18{clip-path:url(#SVGID_38_);fill:#BA0C2F;}
	.st19{clip-path:url(#SVGID_40_);}
	.st20{fill:#C01634;}
	.st21{clip-path:url(#SVGID_42_);fill:#BA0C2F;}
	.st22{clip-path:url(#SVGID_44_);}
	.st23{clip-path:url(#SVGID_46_);}
	.st24{fill:none;stroke:#BA0C2F;stroke-width:2.25;}
	.st25{fill:#BF1C3F;}
	.st26{fill:#C01C41;}
	.st27{fill:#BF1F40;}
	.st28{fill:none;stroke:#C01D40;stroke-width:2.2;stroke-miterlimit:10;}
</style>
<g>
	<rect class="st1" width="160" height="150"/>
	<g>
		<g>
			<path class="st0" d="M80.1,145.2c-17.3,0-30.4-3.4-38.9-10.1c-7.7-6-11.6-14.6-11.6-25.3c0-31.3,35.5-76.6,50.5-76.6
				c15,0,50.3,45.2,50.3,76.5c0,10.8-3.9,19.4-11.5,25.4C110.4,141.8,97.4,145.2,80.1,145.2z M80.1,39.1c-10,0-44.6,40.1-44.6,70.7
				c0,8.9,3.1,15.9,9.3,20.7c7.4,5.8,19.3,8.8,35.3,8.8c15.9,0,27.7-3,35.2-8.8c6.2-4.9,9.3-11.9,9.3-20.8
				C124.5,79.2,90.1,39.1,80.1,39.1z"/>
		</g>
		<g>
			<path class="st0" d="M92.7,40l-12.2-0.5l-12,0.5l-0.9-1.2C49,14.3,50.3,12.3,51.4,10.6c1.6-2.6,4.8-2,8.9-1.3
				c3.2,0.6,7.3,1.3,10.1,0.4c1.4-0.5,2.3-1.1,3.3-1.9c1.5-1.1,3.3-2.5,6.6-2.9l0.4,0l0.4,0c3.2,0.4,5.1,1.8,6.6,2.9
				c1,0.8,1.9,1.4,3.3,1.9c2.8,0.9,6.8,0.2,10.1-0.4c4-0.7,7.2-1.3,8.9,1.3l0,0c1.1,1.7,2.4,3.7-16.1,28.2L92.7,40z M80.5,33.5
				l9.4,0.4c5.2-7,10.8-14.9,13.3-19.1c-0.4,0.1-0.9,0.1-1.3,0.2c-3.9,0.7-8.7,1.5-12.9,0.2c-2.3-0.8-3.8-1.9-5-2.8
				c-1.2-0.9-2-1.5-3.4-1.7c-1.4,0.2-2.2,0.8-3.4,1.7c-1.2,0.9-2.7,2-5,2.8c-4.2,1.4-9,0.5-12.9-0.2c-0.4-0.1-0.8-0.1-1.3-0.2
				C60.5,19.1,66,27,71.3,34L80.5,33.5z"/>
		</g>
		<g>
			<path class="st0" d="M97.3,61.4C94,51.8,88.8,43,80.6,36.6c1.2-0.6,2.9-2.3,3.5-1.8c7.4,6.3,13.3,15.1,16.5,24.5l0,0
				c0.3,1.1-0.5,2.2-1.7,2.1L97.3,61.4z"/>
		</g>
		<g>
			<path class="st0" d="M78.2,50.6c2.3-4.4,3.2-9.1,1.7-14c-0.3-1,0.5-1.9,1.5-1.8c0.8,0.1,1.6,0.2,1.6,0.5c2.1,5.7,1.5,11.8-1.7,17
				l0,0c-0.4,0.6-1.7,0.7-2.6,0.2l0,0C78.1,52,77.9,51.2,78.2,50.6z"/>
		</g>
		<g>
			<g>
				<path class="st0" d="M79.6,87.3h7.2v7.5h-7.2v1.5c0,2.2-0.4,4.5-1.3,5.8h16.7v8.2H66.1V102h2.8c0.8-1.5,1.3-3,1.3-5.8v-1.5h-4.1
					v-7.5h4.1v-3.4c0-7.5,4.7-13.1,12.6-13.1c7.4,0,11.9,4.6,12.3,11.4h-8.9C86,80.2,85,79,83.1,79c-2.3,0-3.5,1.8-3.5,4.6V87.3z"/>
			</g>
		</g>
	</g>
</g>
</svg>
